<?xml version="1.0" encoding="UTF-8"?><svg xmlns="http://www.w3.org/2000/svg" xmlns:xlink="http://www.w3.org/1999/xlink" viewBox="0 0 165.22 154.73"><defs><style>.cls-1{fill:none;}.cls-2{fill:#fff;}.cls-3{fill:url(#Dégradé_sans_nom_10);mix-blend-mode:multiply;}.cls-4{fill:url(#Dégradé_sans_nom_2);}.cls-5{isolation:isolate;}.cls-6{fill:url(#Dégradé_sans_nom_100);}.cls-7{fill:url(#Dégradé_sans_nom_131);}.cls-8{fill:url(#Dégradé_sans_nom_139);}</style><linearGradient id="Dégradé_sans_nom_2" x1="58.25" y1="35.33" x2="123.83" y2="56.63" gradientTransform="matrix(1, 0, 0, 1, 0, 0)" gradientUnits="userSpaceOnUse"><stop offset=".1" stop-color="#0eabe0"/><stop offset=".3" stop-color="#0359a3"/><stop offset=".5" stop-color="#2f3a84"/><stop offset=".7" stop-color="#b62283"/><stop offset=".9" stop-color="#e51b80"/></linearGradient><linearGradient id="Dégradé_sans_nom_10" x1="67.92" y1="43.68" x2="83.46" y2="40.09" gradientTransform="matrix(1, 0, 0, 1, 0, 0)" gradientUnits="userSpaceOnUse"><stop offset="0" stop-color="#fff" stop-opacity="0"/><stop offset=".88" stop-color="#1e1f1c"/></linearGradient><linearGradient id="Dégradé_sans_nom_100" x1="53.44" y1="50.15" x2="124.15" y2="73.12" gradientTransform="matrix(1, 0, 0, 1, 0, 0)" gradientUnits="userSpaceOnUse"><stop offset=".1" stop-color="#11aae0"/><stop offset=".3" stop-color="#0358a3"/><stop offset=".5" stop-color="#363984"/><stop offset=".7" stop-color="#b62283"/><stop offset=".9" stop-color="#e51b80"/></linearGradient><linearGradient id="Dégradé_sans_nom_131" x1="74.86" y1="58.78" x2="86.95" y2="54.92" gradientTransform="matrix(1, 0, 0, 1, 0, 0)" gradientUnits="userSpaceOnUse"><stop offset="0" stop-color="#000" stop-opacity="0"/><stop offset=".74" stop-color="#000" stop-opacity=".73"/><stop offset=".99" stop-color="#000"/></linearGradient><linearGradient id="Dégradé_sans_nom_139" x1="82.21" y1="41.33" x2="87.03" y2="38.31" gradientTransform="matrix(1, 0, 0, 1, 0, 0)" gradientUnits="userSpaceOnUse"><stop offset="0" stop-color="#000"/><stop offset=".89" stop-color="#000" stop-opacity="0"/></linearGradient></defs><g class="cls-5"><g id="Calque_1"><g><g><path class="cls-2" d="M30.41,99.69c-2.62,0-5.1,1.38-6.52,3.61-1.42-2.23-3.9-3.61-6.52-3.61-4.26,0-7.73,3.47-7.73,7.73v11.2c0,.87,.71,1.58,1.58,1.58h.84v-12.62c0-2.92,2.22-5.32,5.05-5.46,1.47-.08,2.86,.45,3.93,1.46,1.07,1.01,1.65,2.38,1.65,3.85v12.78h2.42v-12.62c0-2.92,2.22-5.32,5.05-5.46,1.47-.08,2.86,.45,3.93,1.46,1.07,1.01,1.65,2.38,1.65,3.85v12.78h.84c.87,0,1.58-.71,1.58-1.58v-11.2c0-4.26-3.47-7.73-7.73-7.73Z"/><path class="cls-2" d="M87.55,99.69c-2.62,0-5.1,1.38-6.52,3.61-1.42-2.23-3.9-3.61-6.52-3.61-4.26,0-7.73,3.47-7.73,7.73v11.2c0,.87,.71,1.58,1.58,1.58h.84v-12.62c0-2.92,2.22-5.32,5.05-5.46,1.47-.08,2.86,.45,3.93,1.46,1.07,1.01,1.65,2.38,1.65,3.85v12.78h2.42v-12.62c0-2.92,2.22-5.32,5.05-5.46,1.47-.08,2.86,.45,3.93,1.46,1.07,1.01,1.65,2.38,1.65,3.85v12.78h.84c.87,0,1.58-.71,1.58-1.58v-11.2c0-4.26-3.47-7.73-7.73-7.73Z"/><path class="cls-2" d="M52.11,99.69c-5.66,0-10.26,4.6-10.26,10.26s4.6,10.26,10.26,10.26,10.26-4.6,10.26-10.26-4.6-10.26-10.26-10.26Zm0,18.09c-4.32,0-7.84-3.52-7.84-7.84s3.52-7.84,7.84-7.84,7.84,3.52,7.84,7.84-3.52,7.84-7.84,7.84Z"/><path class="cls-2" d="M116.27,102.47c-2.08-1.96-4.81-2.94-7.68-2.76-5.14,.32-9.26,4.44-9.58,9.58-.18,2.87,.8,5.59,2.76,7.68,1.96,2.09,4.61,3.23,7.48,3.23,3.28,0,6.39-1.59,8.32-4.26,.08-.11,.1-.24,.08-.37-.03-.13-.11-.25-.22-.31l-1.27-.76c-.21-.12-.48-.07-.63,.13-1.68,2.25-4.36,3.4-7.15,3.1-3.6-.39-6.51-3.29-6.91-6.89,0-.09-.02-.17-.02-.26h15.74c.64,0,1.28,0,1.85,0h0c.13,0,.25-.05,.33-.14,.09-.09,.14-.21,.14-.34v-.17c0-2.86-1.15-5.52-3.23-7.48Zm-14.66,5.94c.81-3.72,3.93-6.3,7.64-6.3s6.83,2.59,7.63,6.3h-15.27Z"/><path class="cls-2" d="M155.58,117.77h-.12v.01h-3.94c-1.16,0-2.1-.94-2.1-2.1v-12.73h4.94c.46,0,.84-.38,.84-.84v-1.58h-5.78v-5.45h-.84c-.87,0-1.58,.71-1.58,1.58v3.87h-4.23v2.42h4.23v12.88h0c.08,2.41,2.08,4.36,4.51,4.36h2.5c.87,0,1.58-.71,1.58-1.58v-.74l-.02-.12Z"/><path class="cls-2" d="M131.35,99.69c-4.26,0-7.73,3.47-7.73,7.73v11.2c0,.87,.71,1.58,1.58,1.58h.84v-12.62c0-2.92,2.22-5.32,5.05-5.46,1.47-.08,2.86,.45,3.93,1.46,1.07,1.01,1.65,2.38,1.65,3.85v12.78h.84c.87,0,1.58-.71,1.58-1.58v-11.2c0-4.26-3.47-7.73-7.73-7.73Z"/></g><g><path class="cls-1" d="M77.31,41.56v0Z"/><path class="cls-4" d="M77.28,41.48h0s.02,.05,.03,.08l-.03-.08Z"/><path class="cls-3" d="M77.28,41.48h0s.02,.05,.03,.08l-.03-.08Z"/><g><path class="cls-6" d="M117.16,66.79l-11.47-28.38c-2.17-5.37-7.4-8.63-12.88-8.6-1.69,0-3.39,.33-5.05,.99h0c-2.05,.83-3.79,2.1-5.16,3.66-1.37-1.56-3.11-2.84-5.16-3.66h0c-7.02-2.84-15.09,.59-17.92,7.61l-11.47,28.38c-2.84,7.02,.59,15.09,7.61,17.92h0c7.02,2.84,15.09-.59,17.92-7.61l.71-1.75,8.31-20.56,9.01,22.31c2.84,7.02,10.9,10.45,17.92,7.61h0c7.02-2.84,10.45-10.9,7.61-17.92Zm-39.7-24.84c.1,.33,.18,.67,.22,1.02,.02,.17,.03,.35,.03,.52,0,.35-.02,.71-.09,1.06-.06,.35-.17,.7-.3,1.05l-9.82,24.31-1.64,4.07c-1.12,2.76-4.29,4.11-7.04,2.99-.52-.21-.99-.49-1.4-.83-.41-.34-.77-.73-1.06-1.16-.1-.14-.19-.29-.27-.45-.33-.61-.54-1.28-.62-1.98-.02-.17-.03-.35-.03-.52-.01-.7,.11-1.42,.39-2.11l11.47-28.38c.14-.34,.31-.67,.51-.97,.4-.6,.9-1.1,1.48-1.49,.29-.19,.6-.36,.91-.5,.48-.2,.99-.34,1.51-.4,.87-.1,1.77,0,2.63,.36,.52,.21,.99,.49,1.4,.83,.41,.34,.77,.73,1.06,1.16,.2,.3,.37,.61,.5,.94h0l.03,.07v.03c.06,.12,.1,.23,.14,.35Zm32.31,30.61c-.08,.69-.29,1.37-.62,1.98-.08,.15-.17,.3-.27,.45-.29,.43-.65,.83-1.06,1.16-.41,.34-.88,.62-1.4,.83-.69,.28-1.41,.4-2.11,.39-.18,0-.35-.01-.52-.03-1.91-.22-3.65-1.45-4.41-3.35l-11.47-28.38c-.06-.14-.11-.29-.15-.44-.06-.2-.12-.41-.15-.61-.06-.35-.09-.71-.09-1.06,0-.18,.01-.35,.03-.52,.04-.35,.11-.69,.22-1.02,.16-.5,.38-.97,.68-1.4,.58-.87,1.42-1.57,2.45-1.99h0c.52-.21,1.05-.33,1.58-.37,.18-.01,.35-.02,.53-.02,.36,0,.72,.05,1.07,.13,.33,.07,.65,.17,.96,.3,.16,.07,.32,.14,.47,.23,.22,.12,.42,.26,.62,.4,.35,.26,.67,.55,.95,.89,.35,.42,.65,.9,.86,1.43l11.47,28.38c.14,.34,.24,.7,.3,1.05,.06,.35,.09,.71,.09,1.06,0,.18-.01,.35-.03,.52Z"/><path class="cls-7" d="M77.45,41.94c.1,.33,.18,.67,.22,1.02,.02,.17,.03,.35,.03,.52,0,.35-.02,.71-.09,1.06-.06,.35-.17,.7-.3,1.05l-9.82,24.31,6.81,5.45,8.31-20.56-5.28-13.2c.05,.12,.09,.23,.13,.35Z"/><path class="cls-8" d="M87.76,45.15c-.06-.2-.12-.41-.15-.61-.06-.35-.09-.71-.09-1.06,0-.18,.01-.35,.03-.52,.04-.35,.11-.69,.22-1.02,.16-.5,.38-.97,.68-1.4,.58-.87,1.42-1.57,2.45-1.99h0c.52-.21,1.05-.33,1.58-.37,.18-.01,.35-.02,.53-.02,.36,0,.72,.05,1.07,.13h0l-1.27-8.48c-1.69,0-3.39,.33-5.05,.99h0c-2.05,.83-3.79,2.1-5.16,3.66,2.04,2.26,5.14,10.7,5.14,10.7h0Z"/></g></g></g></g></g></svg>